<?xml version="1.0" encoding="UTF-8" standalone="no"?>
<!DOCTYPE svg PUBLIC "-//W3C//DTD SVG 20010904//EN"
              "http://www.w3.org/TR/2001/REC-SVG-20010904/DTD/svg10.dtd">

<svg xmlns="http://www.w3.org/2000/svg"
     width="7.11111in" height="7.11111in"
     viewBox="0 0 512 512">
  <path id="Circle"
        fill="#441e8b" stroke="none"
        d="M 264.00,0.21
           C 264.00,0.21 276.00,0.91 276.00,0.91
             300.87,2.65 324.65,8.22 348.00,16.95
             373.01,26.30 398.45,41.27 419.00,58.25
             439.59,75.27 457.63,95.40 471.95,118.00
             534.76,217.17 522.88,344.95 443.09,431.00
             423.70,451.91 400.58,469.96 375.00,482.75
             330.78,504.88 295.27,512.57 246.00,512.00
             246.00,512.00 236.00,511.09 236.00,511.09
             215.63,509.66 195.41,505.80 176.00,499.33
             139.83,487.29 108.97,469.02 81.00,443.09
             81.00,443.09 74.17,436.91 74.17,436.91
             31.81,393.29 5.16,336.79 0.91,276.00
             0.91,276.00 0.00,264.00 0.00,264.00
             0.00,264.00 0.00,248.00 0.00,248.00
             0.00,248.00 0.91,236.00 0.91,236.00
             2.95,206.83 10.08,177.63 22.31,151.00
             51.84,86.67 103.14,38.48 170.00,14.69
             186.39,8.86 203.75,4.61 221.00,2.28
             221.00,2.28 240.00,0.21 240.00,0.21
             240.00,0.21 264.00,0.21 264.00,0.21 Z" />
  <path id="React"
        fill="#00d8ff" stroke="none"
        d="M 509.17,256.10
           C 509.17,287.86 471.44,318.93 413.44,338.14
             410.38,339.16 407.24,340.13 404.04,341.08
             405.18,345.67 406.20,350.18 407.07,354.60
             418.52,412.43 409.70,459.96 382.57,475.67
             356.30,490.87 313.84,475.94 270.85,438.94
             266.31,435.03 261.74,430.87 257.17,426.46
             253.64,429.87 250.12,433.12 246.61,436.19
             202.23,474.99 156.65,491.09 129.49,475.43
             103.19,460.26 94.93,416.01 105.51,360.29
             106.63,354.41 107.96,348.38 109.49,342.23
             104.78,340.88 100.21,339.46 95.81,337.96
             40.02,318.89 3.31,287.45 3.31,256.10
             3.31,225.74 37.51,196.48 91.07,177.81
             97.05,175.72 103.31,173.76 109.79,171.92
             108.37,166.23 107.12,160.64 106.05,155.16
             94.95,98.45 102.76,53.14 129.13,37.87
             156.62,21.96 202.41,39.05 248.09,79.61
             250.88,82.09 253.67,84.67 256.47,87.35
             260.67,83.30 264.88,79.44 269.07,75.80
             312.65,37.86 355.81,22.00 382.20,37.21
             409.72,53.08 417.78,101.29 405.46,161.12
             404.71,164.77 403.86,168.47 402.94,172.23
             408.54,173.85 413.98,175.56 419.23,177.36
             473.86,196.17 509.17,225.63 509.17,256.10 Z
           M 487.56,256.10
           C 487.56,237.74 459.00,213.91 412.19,197.80
             407.35,196.13 402.33,194.55 397.15,193.05
             390.93,213.19 382.62,234.46 372.53,256.20
             383.11,278.47 391.75,300.02 398.15,320.29
             401.04,319.43 403.88,318.54 406.65,317.63
             456.72,301.04 487.56,275.65 487.56,256.10 Z
           M 383.13,346.56
           C 362.18,351.40 339.08,354.95 314.62,357.12
             300.72,377.25 286.47,395.37 272.22,410.96
             276.48,415.06 280.72,418.93 284.94,422.56
             321.71,454.20 355.80,466.19 371.74,456.96
             379.23,452.63 385.29,441.80 388.30,425.56
             391.66,407.49 390.93,384.37 385.87,358.80
             385.08,354.80 384.16,350.72 383.13,346.56 Z
           M 232.39,419.92
           C 235.59,417.12 238.80,414.16 242.03,411.04
             227.26,395.19 212.60,377.09 198.61,357.39
             174.09,355.41 151.16,352.11 130.44,347.53
             129.02,353.26 127.78,358.86 126.75,364.32
             117.70,411.98 124.33,447.50 140.29,456.70
             147.79,461.03 160.19,460.87 175.77,455.37
             193.10,449.25 212.77,437.08 232.39,419.92 Z
           M 115.28,321.42
           C 121.68,300.59 130.10,278.71 140.25,256.62
             130.23,234.85 121.92,213.32 115.59,192.73
             109.56,194.45 103.74,196.27 98.18,198.21
             52.38,214.18 24.92,237.68 24.92,256.10
             24.92,264.75 31.25,275.42 43.80,286.16
             57.76,298.12 78.13,309.08 102.80,317.51
             106.81,318.88 110.98,320.18 115.28,321.42 Z
           M 130.73,166.59
           C 151.67,161.85 174.45,158.31 198.24,156.10
             212.11,136.53 226.63,118.56 241.33,102.78
             238.79,100.35 236.26,98.01 233.74,95.77
             194.30,60.75 156.88,46.78 139.95,56.58
             124.06,65.77 117.75,102.43 127.26,151.01
             128.25,156.10 129.42,161.30 130.73,166.59 Z
           M 360.01,231.21
           C 366.41,216.24 371.85,201.63 376.20,187.66
             361.68,184.34 346.22,181.63 330.08,179.59
             335.32,187.80 340.46,196.24 345.46,204.89
             350.57,213.72 355.43,222.50 360.01,231.21 Z
           M 226.46,154.14
           C 236.29,153.68 246.23,153.45 256.24,153.45
             266.34,153.45 276.35,153.69 286.25,154.16
             276.43,141.08 266.45,129.02 256.48,118.22
             246.35,129.14 236.29,141.18 226.46,154.14 Z
           M 166.93,205.04
           C 171.94,196.34 177.12,187.84 182.43,179.55
             166.39,181.56 151.00,184.20 136.57,187.43
             140.97,201.60 146.35,216.27 152.65,231.20
             157.16,222.45 161.93,213.71 166.93,205.04
             166.93,205.04 166.93,205.04 166.93,205.04 Z
           M 167.01,308.20
           C 167.01,308.20 167.01,308.20 167.01,308.20
             161.98,299.51 157.20,290.77 152.67,282.02
             146.24,297.27 140.74,312.26 136.27,326.68
             150.70,329.82 166.32,332.33 182.89,334.18
             177.44,325.72 172.14,317.05 167.01,308.20 Z
           M 286.77,358.96
           C 276.74,359.41 266.55,359.64 256.24,359.64
             246.20,359.64 236.33,359.45 226.64,359.07
             236.62,372.22 246.83,384.44 257.08,395.49
             266.98,384.59 276.92,372.35 286.77,358.96 Z
           M 345.55,308.05
           C 340.45,316.88 335.27,325.47 330.02,333.79
             346.70,331.79 362.54,329.09 377.21,325.75
             372.68,311.57 366.98,296.66 360.22,281.25
             355.59,290.16 350.70,299.11 345.55,308.05 Z
           M 348.57,256.31
           C 341.98,242.99 334.69,229.42 326.76,215.72
             318.92,202.17 310.75,189.15 302.38,176.80
             287.34,175.65 271.90,175.06 256.24,175.06
             256.24,175.06 256.24,175.06 256.24,175.06
             240.65,175.06 225.22,175.65 210.17,176.79
             201.68,189.23 193.46,202.29 185.65,215.84
             185.65,215.84 185.65,215.83 185.65,215.83
             177.86,229.34 170.66,243.01 164.13,256.61
             170.66,270.19 177.88,283.84 185.71,297.37
             185.71,297.37 185.71,297.37 185.71,297.37
             193.57,310.94 201.86,324.07 210.44,336.59
             225.18,337.54 240.50,338.03 256.24,338.03
             272.04,338.03 287.55,337.48 302.56,336.41
             310.80,324.05 318.92,310.96 326.83,297.25
             334.73,283.56 342.00,269.85 348.57,256.31 Z
           M 283.25,92.10
           C 279.39,95.46 275.51,99.03 271.62,102.77
             286.08,118.35 300.48,136.34 314.38,156.13
             338.24,158.37 361.03,161.98 382.02,166.82
             382.85,163.42 383.61,160.06 384.29,156.76
             394.94,105.10 388.35,65.70 371.41,55.93
             355.51,46.76 320.60,59.60 283.25,92.10 Z
           M 211.07,256.10
           C 211.07,281.04 231.29,301.27 256.24,301.27
             281.18,301.27 301.41,281.04 301.41,256.10
             301.41,231.15 281.18,210.92 256.24,210.92
             231.29,210.92 211.07,231.15 211.07,256.10 Z" />
  <path id="Redux"
        fill="#fff" stroke="none"
        d="M 196.80,403.56
           C 186.97,406.02 177.13,407.00 167.30,407.00
             130.93,407.00 97.99,391.77 81.77,367.19
             60.14,334.25 52.77,264.45 124.05,212.83
             125.52,220.69 128.47,231.51 130.44,237.90
             121.10,244.78 106.35,258.55 97.01,277.23
             83.74,303.28 85.21,329.33 100.94,353.42
             111.76,369.64 128.96,379.48 151.08,382.43
             178.12,385.87 205.15,380.95 231.21,367.19
             269.55,347.03 295.11,322.94 311.82,290.01
             307.40,285.58 304.45,279.19 303.96,271.82
             303.47,256.58 315.26,243.80 330.50,243.31
             330.50,243.31 331.49,243.31 331.49,243.31
             346.23,243.31 358.52,255.11 359.01,269.85
             359.51,284.60 348.69,296.89 334.44,298.36
             307.40,353.91 259.72,391.27 196.80,403.56 Z
           M 444.55,356.86
           C 431.27,382.92 396.37,408.97 349.18,408.97
             328.54,408.97 306.91,403.56 285.77,393.73
             292.65,388.82 302.48,380.95 307.89,376.03
             317.72,380.46 336.40,386.36 356.06,386.36
             386.54,386.36 409.64,372.10 423.41,346.05
             432.26,328.84 432.75,308.69 424.39,288.04
             414.56,262.48 396.86,241.34 372.29,225.12
             340.33,203.98 304.94,193.17 267.58,193.17
             267.58,193.17 258.73,193.17 258.73,193.17
             254.80,202.51 245.46,209.39 234.65,209.88
             234.65,209.88 233.66,209.88 233.66,209.88
             218.92,209.88 206.63,198.08 206.14,183.33
             205.65,168.10 217.44,155.31 232.68,154.82
             232.68,154.82 233.66,154.82 233.66,154.82
             243.99,154.82 253.33,160.72 257.75,169.57
             257.75,169.57 265.62,169.57 265.62,169.57
             328.54,169.57 383.59,193.66 420.95,237.41
             457.82,279.19 458.80,328.35 444.55,356.86 Z
           M 174.68,292.47
           C 147.15,244.78 132.40,184.32 155.01,121.40
             171.24,74.20 212.04,42.25 256.28,42.25
             303.47,42.25 352.62,83.54 358.52,163.18
             351.15,160.72 340.33,157.28 333.94,155.81
             332.47,129.75 310.35,64.86 258.24,65.85
             239.56,66.34 212.04,75.19 197.78,93.38
             180.58,114.51 170.74,140.08 168.78,169.57
             165.83,208.90 174.19,245.27 194.34,278.70
             195.32,278.21 196.80,278.21 197.78,278.21
             197.78,278.21 198.76,278.21 198.76,278.21
             213.51,278.21 225.80,290.01 226.29,304.76
             226.78,319.99 214.99,332.78 199.75,333.27
             199.75,333.27 198.76,333.27 198.76,333.27
             184.02,333.27 171.73,321.47 171.24,306.72
             170.74,301.31 172.22,295.91 174.68,292.47 Z" />
</svg>
